<svg width="50" height="50" viewBox="0 0 50 50" fill="none" xmlns="http://www.w3.org/2000/svg">
<path d="M25 4.6875C20.9826 4.6875 17.0554 5.87881 13.715 8.11077C10.3746 10.3427 7.77111 13.5151 6.23371 17.2267C4.6963 20.9384 4.29405 25.0225 5.07781 28.9628C5.86157 32.903 7.79615 36.5224 10.6369 39.3631C13.4777 42.2039 17.097 44.1384 21.0372 44.9222C24.9775 45.706 29.0616 45.3037 32.7733 43.7663C36.4849 42.2289 39.6573 39.6254 41.8892 36.285C44.1212 32.9446 45.3125 29.0174 45.3125 25C45.3063 19.6147 43.1642 14.4518 39.3562 10.6438C35.5483 6.83578 30.3853 4.69372 25 4.6875ZM32.1167 26.3L22.7417 32.55C22.5065 32.7072 22.2329 32.7975 21.9504 32.8113C21.6678 32.825 21.3868 32.7618 21.1373 32.6283C20.8879 32.4948 20.6794 32.2961 20.5341 32.0533C20.3889 31.8106 20.3123 31.5329 20.3125 31.25V18.75C20.3123 18.4671 20.3889 18.1894 20.5341 17.9467C20.6794 17.7039 20.8879 17.5052 21.1373 17.3717C21.3868 17.2382 21.6678 17.175 21.9504 17.1887C22.2329 17.2025 22.5065 17.2928 22.7417 17.45L32.1167 23.7C32.3307 23.8426 32.5062 24.0359 32.6276 24.2627C32.749 24.4895 32.8125 24.7428 32.8125 25C32.8125 25.2572 32.749 25.5105 32.6276 25.7373C32.5062 25.9641 32.3307 26.1574 32.1167 26.3Z" fill="white"/>
</svg>
